# xmcd
#
# Track frame offsets:
#	150
#	18399
#	36034
#	59906
#	74716
#	94409
#	110174
#	125351
#	143283
#	155958
#	173075
#	202605
#	231111
#
# Disc length: 3197 seconds
#
# Revision: 1
# Processed by: cddbd v1.5.2PL0 Copyright (c) Steve Scherf et al.
# Submitted via: audiograbber 1.83.01
#
DISCID=ba0c7b0d
DTITLE=Krausberry - Zive v Malostranske besede 2
DYEAR=1900
DGENRE=
TTITLE0=Penize
TTITLE1=Korenova zelenina
TTITLE2=Slunecny hrob
TTITLE3=Horko
TTITLE4=Emil
TTITLE5=Dira do hlavy
TTITLE6=Prazaci
TTITLE7=Nastydla
TTITLE8=Na Hrad
TTITLE9=Do nebe
TTITLE10=Siksa a Gadzo
TTITLE11=Mustek
TTITLE12=Sgt. Zeli
EXTD=
EXTT0=
EXTT1=
EXTT2=
EXTT3=
EXTT4=
EXTT5=
EXTT6=
EXTT7=
EXTT8=
EXTT9=
EXTT10=
EXTT11=
EXTT12=
PLAYORDER=
